{
    "asset" : {
        "generator" : "Khronos glTF Blender I/O v3.3.32",
        "version" : "2.0"
    },
    "scene" : 0,
    "scenes" : [
        {
            "extras" : {
                "s_output" : "exporting..."
            },
            "name" : "Scene",
            "nodes" : [
                0
            ]
        }
    ],
    "nodes" : [
        {
            "mesh" : 0,
            "name" : "\u041a\u043e\u043d\u0443\u0441.001",
            "rotation" : [
                0,
                -0.3826834559440613,
                0,
                0.9238795638084412
            ]
        }
    ],
    "materials" : [
        {
            "doubleSided" : true,
            "name" : "Material.001",
            "pbrMetallicRoughness" : {
                "baseColorFactor" : [
                    0.8000000715255737,
                    0,
                    0.39694836735725403,
                    1
                ],
                "metallicFactor" : 0,
                "roughnessFactor" : 0.5
            }
        }
    ],
    "meshes" : [
        {
            "name" : "\u041a\u043e\u043d\u0443\u0441.001",
            "primitives" : [
                {
                    "attributes" : {
                        "POSITION" : 0,
                        "NORMAL" : 1,
                        "TANGENT" : 2,
                        "TEXCOORD_0" : 3
                    },
                    "indices" : 4,
                    "material" : 0
                }
            ]
        }
    ],
    "accessors" : [
        {
            "bufferView" : 0,
            "componentType" : 5126,
            "count" : 10688,
            "max" : [
                1.0201927423477173,
                1.3688700199127197,
                1.0201927423477173
            ],
            "min" : [
                -1.0201926231384277,
                -0.6252567172050476,
                -1.0201927423477173
            ],
            "type" : "VEC3"
        },
        {
            "bufferView" : 1,
            "componentType" : 5126,
            "count" : 10688,
            "type" : "VEC3"
        },
        {
            "bufferView" : 2,
            "componentType" : 5126,
            "count" : 10688,
            "type" : "VEC4"
        },
        {
            "bufferView" : 3,
            "componentType" : 5126,
            "count" : 10688,
            "type" : "VEC2"
        },
        {
            "bufferView" : 4,
            "componentType" : 5123,
            "count" : 16032,
            "type" : "SCALAR"
        }
    ],
    "bufferViews" : [
        {
            "buffer" : 0,
            "byteLength" : 128256,
            "byteOffset" : 0,
            "target" : 34962
        },
        {
            "buffer" : 0,
            "byteLength" : 128256,
            "byteOffset" : 128256,
            "target" : 34962
        },
        {
            "buffer" : 0,
            "byteLength" : 171008,
            "byteOffset" : 256512,
            "target" : 34962
        },
        {
            "buffer" : 0,
            "byteLength" : 85504,
            "byteOffset" : 427520,
            "target" : 34962
        },
        {
            "buffer" : 0,
            "byteLength" : 32064,
            "byteOffset" : 513024,
            "target" : 34963
        }
    ],
    "buffers" : [
        {
            "byteLength" : 545088,
            "uri" : "data:application/octet-stream;base64,"
        }
    ]
}
