{
	"asset":{
		"generator":"Khronos glTF Blender I/O v3.6.27",
		"version":"2.0"
	},
	"scene":0,
	"scenes":[
		{
			"extras":{
				"s_output":"exporting..."
			},
			"name":"Scene",
			"nodes":[
				0
			]
		}
	],
	"nodes":[
		{
			"mesh":0,
			"name":"Circle",
			"rotation":[
				-0.0677732527256012,
				-0.06777317076921463,
				-0.7038514018058777,
				0.7038515210151672
			],
			"scale":[
				0.553741455078125,
				0.3603047728538513,
				0.553741455078125
			]
		}
	],
	"materials":[
		{
			"doubleSided":true,
			"name":"Material.001",
			"pbrMetallicRoughness":{
				"baseColorFactor":[
					0.8000000715255737,
					0.7428176403045654,
					0.43552345037460327,
					1
				],
				"metallicFactor":0,
				"roughnessFactor":0.5
			}
		}
	],
	"meshes":[
		{
			"name":"Circle",
			"primitives":[
				{
					"attributes":{
						"POSITION":0,
						"NORMAL":1,
						"TEXCOORD_0":2
					},
					"indices":3,
					"material":0
				}
			]
		}
	],
	"accessors":[
		{
			"bufferView":0,
			"componentType":5126,
			"count":42,
			"max":[
				0.5136857032775879,
				0.019999999552965164,
				0.6211835145950317
			],
			"min":[
				-0.4101938009262085,
				-0.019999999552965164,
				-0.3540666103363037
			],
			"type":"VEC3"
		},
		{
			"bufferView":1,
			"componentType":5126,
			"count":42,
			"type":"VEC3"
		},
		{
			"bufferView":2,
			"componentType":5126,
			"count":42,
			"type":"VEC2"
		},
		{
			"bufferView":3,
			"componentType":5123,
			"count":72,
			"type":"SCALAR"
		}
	],
	"bufferViews":[
		{
			"buffer":0,
			"byteLength":504,
			"byteOffset":0,
			"target":34962
		},
		{
			"buffer":0,
			"byteLength":504,
			"byteOffset":504,
			"target":34962
		},
		{
			"buffer":0,
			"byteLength":336,
			"byteOffset":1008,
			"target":34962
		},
		{
			"buffer":0,
			"byteLength":144,
			"byteOffset":1344,
			"target":34963
		}
	],
	"buffers":[
		{
			"byteLength":1488,
			"uri":"data:application/octet-stream;base64,"
		}
	]
}
