{
	"asset":{
		"generator":"Khronos glTF Blender I/O v3.6.27",
		"version":"2.0"
	},
	"scene":0,
	"scenes":[
		{
			"extras":{
				"s_output":"exporting..."
			},
			"name":"Scene",
			"nodes":[
				0
			]
		}
	],
	"nodes":[
		{
			"mesh":0,
			"name":"\u0426\u0438\u043b\u0456\u043d\u0434\u0440.001",
			"rotation":[
				-0.19601088762283325,
				-0.1960107982158661,
				-0.6793966889381409,
				0.6793966293334961
			],
			"scale":[
				-0.030867941677570343,
				-0.8116729259490967,
				-0.030867941677570343
			]
		}
	],
	"materials":[
		{
			"doubleSided":true,
			"name":"Material.004",
			"pbrMetallicRoughness":{
				"baseColorFactor":[
					0.47698986530303955,
					0.0018127545481547713,
					0.11200672388076782,
					1
				],
				"metallicFactor":0,
				"roughnessFactor":0.5
			}
		}
	],
	"meshes":[
		{
			"name":"\u0426\u0438\u043b\u0456\u043d\u0434\u0440.001",
			"primitives":[
				{
					"attributes":{
						"POSITION":0,
						"NORMAL":1,
						"TEXCOORD_0":2
					},
					"indices":3,
					"material":0
				}
			]
		}
	],
	"accessors":[
		{
			"bufferView":0,
			"componentType":5126,
			"count":786,
			"max":[
				133.521484375,
				3.5333101749420166,
				1.0190660953521729
			],
			"min":[
				-51.56857681274414,
				-3.501295328140259,
				-0.9809420704841614
			],
			"type":"VEC3"
		},
		{
			"bufferView":1,
			"componentType":5126,
			"count":786,
			"type":"VEC3"
		},
		{
			"bufferView":2,
			"componentType":5126,
			"count":786,
			"type":"VEC2"
		},
		{
			"bufferView":3,
			"componentType":5123,
			"count":1362,
			"type":"SCALAR"
		}
	],
	"bufferViews":[
		{
			"buffer":0,
			"byteLength":9432,
			"byteOffset":0,
			"target":34962
		},
		{
			"buffer":0,
			"byteLength":9432,
			"byteOffset":9432,
			"target":34962
		},
		{
			"buffer":0,
			"byteLength":6288,
			"byteOffset":18864,
			"target":34962
		},
		{
			"buffer":0,
			"byteLength":2724,
			"byteOffset":25152,
			"target":34963
		}
	],
	"buffers":[
		{
			"byteLength":27876,
			"uri":"data:application/octet-stream;base64,"
		}
	]
}
