{
	"asset":{
		"generator":"Khronos glTF Blender I/O v3.6.27",
		"version":"2.0"
	},
	"scene":0,
	"scenes":[
		{
			"extras":{
				"s_output":"exporting..."
			},
			"name":"Scene",
			"nodes":[
				0
			]
		}
	],
	"nodes":[
		{
			"mesh":0,
			"name":"\u041a\u043e\u043d\u0443\u0441",
			"scale":[
				1.49190092086792,
				1.49190092086792,
				1.49190092086792
			]
		}
	],
	"materials":[
		{
			"doubleSided":true,
			"name":"\u041c\u0430\u0442\u0435\u0440\u0438\u0430\u043b",
			"pbrMetallicRoughness":{
				"baseColorFactor":[
					0.8000000715255737,
					0.2776476740837097,
					0.7610278725624084,
					1
				],
				"metallicFactor":0,
				"roughnessFactor":0.5
			}
		},
		{
			"doubleSided":true,
			"name":"\u041c\u0430\u0442\u0435\u0440\u0438\u0430\u043b.001",
			"pbrMetallicRoughness":{
				"baseColorFactor":[
					0.3319050371646881,
					0.208211287856102,
					0.8000000715255737,
					1
				],
				"metallicFactor":0,
				"roughnessFactor":0.5
			}
		}
	],
	"meshes":[
		{
			"name":"\u041a\u043e\u043d\u0443\u0441",
			"primitives":[
				{
					"attributes":{
						"POSITION":0,
						"NORMAL":1,
						"TEXCOORD_0":2,
						"TANGENT":3
					},
					"indices":4,
					"material":0
				},
				{
					"attributes":{
						"POSITION":5,
						"NORMAL":6,
						"TEXCOORD_0":7,
						"TANGENT":8
					},
					"indices":9,
					"material":1
				}
			]
		}
	],
	"accessors":[
		{
			"bufferView":0,
			"componentType":5126,
			"count":15,
			"max":[
				0.9094920754432678,
				1.4779051542282104,
				0.5220949053764343
			],
			"min":[
				-0.33214181661605835,
				-0.5220948457717896,
				-0.9779051542282104
			],
			"type":"VEC3"
		},
		{
			"bufferView":1,
			"componentType":5126,
			"count":15,
			"type":"VEC3"
		},
		{
			"bufferView":2,
			"componentType":5126,
			"count":15,
			"type":"VEC2"
		},
		{
			"bufferView":3,
			"componentType":5126,
			"count":15,
			"type":"VEC4"
		},
		{
			"bufferView":4,
			"componentType":5123,
			"count":21,
			"type":"SCALAR"
		},
		{
			"bufferView":5,
			"componentType":5126,
			"count":3,
			"max":[
				-0.33214181661605835,
				0.6104744672775269,
				0.5220949053764343
			],
			"min":[
				-0.33214181661605835,
				-0.5220948457717896,
				-0.32733213901519775
			],
			"type":"VEC3"
		},
		{
			"bufferView":6,
			"componentType":5126,
			"count":3,
			"type":"VEC3"
		},
		{
			"bufferView":7,
			"componentType":5126,
			"count":3,
			"type":"VEC2"
		},
		{
			"bufferView":8,
			"componentType":5126,
			"count":3,
			"type":"VEC4"
		},
		{
			"bufferView":9,
			"componentType":5123,
			"count":3,
			"type":"SCALAR"
		}
	],
	"bufferViews":[
		{
			"buffer":0,
			"byteLength":180,
			"byteOffset":0,
			"target":34962
		},
		{
			"buffer":0,
			"byteLength":180,
			"byteOffset":180,
			"target":34962
		},
		{
			"buffer":0,
			"byteLength":120,
			"byteOffset":360,
			"target":34962
		},
		{
			"buffer":0,
			"byteLength":240,
			"byteOffset":480,
			"target":34962
		},
		{
			"buffer":0,
			"byteLength":42,
			"byteOffset":720,
			"target":34963
		},
		{
			"buffer":0,
			"byteLength":36,
			"byteOffset":764,
			"target":34962
		},
		{
			"buffer":0,
			"byteLength":36,
			"byteOffset":800,
			"target":34962
		},
		{
			"buffer":0,
			"byteLength":24,
			"byteOffset":836,
			"target":34962
		},
		{
			"buffer":0,
			"byteLength":48,
			"byteOffset":860,
			"target":34962
		},
		{
			"buffer":0,
			"byteLength":6,
			"byteOffset":908,
			"target":34963
		}
	],
	"buffers":[
		{
			"byteLength":916,
			"uri":"data:application/octet-stream;base64,"
		}
	]
}
