{
	"asset":{
		"generator":"Khronos glTF Blender I/O v3.6.27",
		"version":"2.0"
	},
	"scene":0,
	"scenes":[
		{
			"extras":{
				"s_output":"exporting..."
			},
			"name":"Scene",
			"nodes":[
				0
			]
		}
	],
	"nodes":[
		{
			"mesh":0,
			"name":"\u041a\u0443\u0431",
			"scale":[
				2,
				2,
				2
			]
		}
	],
	"materials":[
		{
			"doubleSided":true,
			"name":"Material.002",
			"pbrMetallicRoughness":{
				"baseColorFactor":[
					0.8000000715255737,
					0.005008865613490343,
					0,
					1
				],
				"metallicFactor":0,
				"roughnessFactor":0.5
			}
		},
		{
			"doubleSided":true,
			"name":"Material.001",
			"pbrMetallicRoughness":{
				"baseColorFactor":[
					0,
					0.0026099623646587133,
					0.8000000715255737,
					1
				],
				"metallicFactor":0,
				"roughnessFactor":0.5
			}
		}
	],
	"meshes":[
		{
			"name":"\u041a\u0443\u0431",
			"primitives":[
				{
					"attributes":{
						"POSITION":0,
						"NORMAL":1,
						"TEXCOORD_0":2,
						"TANGENT":3
					},
					"indices":4,
					"material":0
				},
				{
					"attributes":{
						"POSITION":5,
						"NORMAL":6,
						"TEXCOORD_0":7,
						"TANGENT":8
					},
					"indices":9,
					"material":1
				}
			]
		}
	],
	"accessors":[
		{
			"bufferView":0,
			"componentType":5126,
			"count":352,
			"max":[
				1.0230534076690674,
				0.9913091659545898,
				0.9913090467453003
			],
			"min":[
				-1.02305006980896,
				-0.9913123846054077,
				-0.9913123846054077
			],
			"type":"VEC3"
		},
		{
			"bufferView":1,
			"componentType":5126,
			"count":352,
			"type":"VEC3"
		},
		{
			"bufferView":2,
			"componentType":5126,
			"count":352,
			"type":"VEC2"
		},
		{
			"bufferView":3,
			"componentType":5126,
			"count":352,
			"type":"VEC4"
		},
		{
			"bufferView":4,
			"componentType":5123,
			"count":528,
			"type":"SCALAR"
		},
		{
			"bufferView":5,
			"componentType":5126,
			"count":19072,
			"max":[
				1.0231400728225708,
				1.0231369733810425,
				1.023136854171753
			],
			"min":[
				-1.023136854171753,
				-1.0231400728225708,
				-1.0231401920318604
			],
			"type":"VEC3"
		},
		{
			"bufferView":6,
			"componentType":5126,
			"count":19072,
			"type":"VEC3"
		},
		{
			"bufferView":7,
			"componentType":5126,
			"count":19072,
			"type":"VEC2"
		},
		{
			"bufferView":8,
			"componentType":5126,
			"count":19072,
			"type":"VEC4"
		},
		{
			"bufferView":9,
			"componentType":5123,
			"count":28608,
			"type":"SCALAR"
		}
	],
	"bufferViews":[
		{
			"buffer":0,
			"byteLength":4224,
			"byteOffset":0,
			"target":34962
		},
		{
			"buffer":0,
			"byteLength":4224,
			"byteOffset":4224,
			"target":34962
		},
		{
			"buffer":0,
			"byteLength":2816,
			"byteOffset":8448,
			"target":34962
		},
		{
			"buffer":0,
			"byteLength":5632,
			"byteOffset":11264,
			"target":34962
		},
		{
			"buffer":0,
			"byteLength":1056,
			"byteOffset":16896,
			"target":34963
		},
		{
			"buffer":0,
			"byteLength":228864,
			"byteOffset":17952,
			"target":34962
		},
		{
			"buffer":0,
			"byteLength":228864,
			"byteOffset":246816,
			"target":34962
		},
		{
			"buffer":0,
			"byteLength":152576,
			"byteOffset":475680,
			"target":34962
		},
		{
			"buffer":0,
			"byteLength":305152,
			"byteOffset":628256,
			"target":34962
		},
		{
			"buffer":0,
			"byteLength":57216,
			"byteOffset":933408,
			"target":34963
		}
	],
	"buffers":[
		{
			"byteLength":990624,
			"uri":"data:application/octet-stream;base64,"
		}
	]
}
