{
	"asset":{
		"generator":"Khronos glTF Blender I/O v3.6.27",
		"version":"2.0"
	},
	"scene":0,
	"scenes":[
		{
			"extras":{
				"s_output":"exporting..."
			},
			"name":"Scene",
			"nodes":[
				0
			]
		}
	],
	"nodes":[
		{
			"mesh":0,
			"name":"\u043f\u043b\u043e\u0449\u0438\u043d\u0430"
		}
	],
	"materials":[
		{
			"doubleSided":true,
			"name":"Material.003",
			"pbrMetallicRoughness":{
				"baseColorFactor":[
					0.3553163409233093,
					0.026749085634946823,
					0.8000000715255737,
					1
				],
				"metallicFactor":0,
				"roughnessFactor":0.5
			}
		}
	],
	"meshes":[
		{
			"name":"Cube.009",
			"primitives":[
				{
					"attributes":{
						"POSITION":0,
						"NORMAL":1,
						"TEXCOORD_0":2,
						"TANGENT":3
					},
					"indices":4,
					"material":0
				}
			]
		}
	],
	"accessors":[
		{
			"bufferView":0,
			"componentType":5126,
			"count":3,
			"max":[
				0.3371685743331909,
				0.6676355600357056,
				0.6719551682472229
			],
			"min":[
				-0.6743371486663818,
				-0.3338177800178528,
				-0.33597755432128906
			],
			"type":"VEC3"
		},
		{
			"bufferView":1,
			"componentType":5126,
			"count":3,
			"type":"VEC3"
		},
		{
			"bufferView":2,
			"componentType":5126,
			"count":3,
			"type":"VEC2"
		},
		{
			"bufferView":3,
			"componentType":5126,
			"count":3,
			"type":"VEC4"
		},
		{
			"bufferView":4,
			"componentType":5123,
			"count":3,
			"type":"SCALAR"
		}
	],
	"bufferViews":[
		{
			"buffer":0,
			"byteLength":36,
			"byteOffset":0,
			"target":34962
		},
		{
			"buffer":0,
			"byteLength":36,
			"byteOffset":36,
			"target":34962
		},
		{
			"buffer":0,
			"byteLength":24,
			"byteOffset":72,
			"target":34962
		},
		{
			"buffer":0,
			"byteLength":48,
			"byteOffset":96,
			"target":34962
		},
		{
			"buffer":0,
			"byteLength":6,
			"byteOffset":144,
			"target":34963
		}
	],
	"buffers":[
		{
			"byteLength":152,
			"uri":"data:application/octet-stream;base64,"
		}
	]
}
