{
	"asset":{
		"generator":"Khronos glTF Blender I/O v3.6.27",
		"version":"2.0"
	},
	"scene":0,
	"scenes":[
		{
			"extras":{
				"s_output":"exporting..."
			},
			"name":"Scene",
			"nodes":[
				0
			]
		}
	],
	"nodes":[
		{
			"mesh":0,
			"name":"Cone",
			"scale":[
				1.687498688697815,
				1.687498688697815,
				1.687498688697815
			]
		}
	],
	"materials":[
		{
			"doubleSided":true,
			"name":"Material.001",
			"pbrMetallicRoughness":{
				"baseColorFactor":[
					0.8000000715255737,
					0,
					0.39694836735725403,
					1
				],
				"metallicFactor":0,
				"roughnessFactor":0.5
			}
		}
	],
	"meshes":[
		{
			"name":"Cone",
			"primitives":[
				{
					"attributes":{
						"POSITION":0,
						"NORMAL":1,
						"TEXCOORD_0":2,
						"TANGENT":3
					},
					"indices":4,
					"material":0
				}
			]
		}
	],
	"accessors":[
		{
			"bufferView":0,
			"componentType":5126,
			"count":8736,
			"max":[
				0.8929102420806885,
				1.5311036109924316,
				0.5172229409217834
			],
			"min":[
				-0.8929034471511841,
				-0.511184811592102,
				-1.030818223953247
			],
			"type":"VEC3"
		},
		{
			"bufferView":1,
			"componentType":5126,
			"count":8736,
			"type":"VEC3"
		},
		{
			"bufferView":2,
			"componentType":5126,
			"count":8736,
			"type":"VEC2"
		},
		{
			"bufferView":3,
			"componentType":5126,
			"count":8736,
			"type":"VEC4"
		},
		{
			"bufferView":4,
			"componentType":5123,
			"count":13104,
			"type":"SCALAR"
		}
	],
	"bufferViews":[
		{
			"buffer":0,
			"byteLength":104832,
			"byteOffset":0,
			"target":34962
		},
		{
			"buffer":0,
			"byteLength":104832,
			"byteOffset":104832,
			"target":34962
		},
		{
			"buffer":0,
			"byteLength":69888,
			"byteOffset":209664,
			"target":34962
		},
		{
			"buffer":0,
			"byteLength":139776,
			"byteOffset":279552,
			"target":34962
		},
		{
			"buffer":0,
			"byteLength":26208,
			"byteOffset":419328,
			"target":34963
		}
	],
	"buffers":[
		{
			"byteLength":445536,
			"uri":"data:application/octet-stream;base64,"
		}
	]
}
