{
	"asset":{
		"generator":"Khronos glTF Blender I/O v3.6.27",
		"version":"2.0"
	},
	"scene":0,
	"scenes":[
		{
			"extras":{
				"s_output":"exporting..."
			},
			"name":"Scene",
			"nodes":[
				0
			]
		}
	],
	"nodes":[
		{
			"mesh":0,
			"name":"Cylinder.002",
			"rotation":[
				-0.1620691567659378,
				0.6882830858230591,
				0.6882830858230591,
				0.1620691418647766
			],
			"scale":[
				-0.029999971389770508,
				-1.8448631763458252,
				-0.029999971389770508
			]
		}
	],
	"materials":[
		{
			"doubleSided":true,
			"name":"Material.005",
			"pbrMetallicRoughness":{
				"baseColorFactor":[
					0,
					0.07554928958415985,
					0.25979503989219666,
					1
				],
				"metallicFactor":0,
				"roughnessFactor":0.5
			}
		}
	],
	"meshes":[
		{
			"name":"Cylinder.002",
			"primitives":[
				{
					"attributes":{
						"POSITION":0,
						"NORMAL":1,
						"TEXCOORD_0":2
					},
					"indices":3,
					"material":0
				}
			]
		}
	],
	"accessors":[
		{
			"bufferView":0,
			"componentType":5126,
			"count":349,
			"max":[
				98.7926025390625,
				0.9972126483917236,
				0.9900765419006348
			],
			"min":[
				-70.0428695678711,
				-1.1600910425186157,
				-1.0099270343780518
			],
			"type":"VEC3"
		},
		{
			"bufferView":1,
			"componentType":5126,
			"count":349,
			"type":"VEC3"
		},
		{
			"bufferView":2,
			"componentType":5126,
			"count":349,
			"type":"VEC2"
		},
		{
			"bufferView":3,
			"componentType":5123,
			"count":645,
			"type":"SCALAR"
		}
	],
	"bufferViews":[
		{
			"buffer":0,
			"byteLength":4188,
			"byteOffset":0,
			"target":34962
		},
		{
			"buffer":0,
			"byteLength":4188,
			"byteOffset":4188,
			"target":34962
		},
		{
			"buffer":0,
			"byteLength":2792,
			"byteOffset":8376,
			"target":34962
		},
		{
			"buffer":0,
			"byteLength":1290,
			"byteOffset":11168,
			"target":34963
		}
	],
	"buffers":[
		{
			"byteLength":12460,
			"uri":"data:application/octet-stream;base64,"
		}
	]
}
